<svg width="20" height="20" viewBox="0 0 20 20" fill="none" xmlns="http://www.w3.org/2000/svg">
<path d="M18 0H6C5.46957 0 4.96086 0.210714 4.58579 0.585786C4.21071 0.960859 4 1.46957 4 2V14C4 14.5304 4.21071 15.0391 4.58579 15.4142C4.96086 15.7893 5.46957 16 6 16H18C18.5304 16 19.0391 15.7893 19.4142 15.4142C19.7893 15.0391 20 14.5304 20 14V2C20 1.46957 19.7893 0.960859 19.4142 0.585786C19.0391 0.210714 18.5304 0 18 0ZM12 2.5C12.663 2.5 13.2989 2.76339 13.7678 3.23223C14.2366 3.70107 14.5 4.33696 14.5 5C14.5 5.66304 14.2366 6.29893 13.7678 6.76777C13.2989 7.23661 12.663 7.5 12 7.5C11.337 7.5 10.7011 7.23661 10.2322 6.76777C9.76339 6.29893 9.5 5.66304 9.5 5C9.5 4.33696 9.76339 3.70107 10.2322 3.23223C10.7011 2.76339 11.337 2.5 12 2.5ZM17 13H7V12.75C7 10.901 9.254 9 12 9C14.746 9 17 10.901 17 12.75V13Z" fill="#F8F3EF"/>
<path d="M2 6H0V18C0 19.103 0.897 20 2 20H14V18H2V6Z" fill="#F8F3EF"/>
</svg>
