<svg width="20" height="21" viewBox="0 0 20 21" fill="none" xmlns="http://www.w3.org/2000/svg">
<path d="M10.7127 0.300725C10.6197 0.205435 10.5092 0.129802 10.3874 0.0781878C10.2655 0.0265736 10.1349 0 10.0029 0C9.87092 0 9.74025 0.0265736 9.61842 0.0781878C9.4966 0.129802 9.38603 0.205435 9.2931 0.300725L0.295712 9.45061C0.202011 9.54513 0.127638 9.65757 0.0768846 9.78146C0.0261306 9.90535 0 10.0382 0 10.1724C0 10.3066 0.0261306 10.4395 0.0768846 10.5634C0.127638 10.6873 0.202011 10.7998 0.295712 10.8943C0.389125 10.9885 0.499909 11.063 0.621711 11.1136C0.743513 11.1642 0.873938 11.1899 1.00551 11.1891H2.00522V18.3057C2.00522 18.8449 2.21587 19.3621 2.59083 19.7434C2.9658 20.1248 3.47436 20.339 4.00463 20.339H16.0011C16.5314 20.339 17.04 20.1248 17.4149 19.7434C17.7899 19.3621 18.0006 18.8449 18.0006 18.3057V11.1891H19.0003C19.2654 11.1891 19.5197 11.082 19.7072 10.8913C19.8947 10.7007 20 10.4421 20 10.1724C20.0007 10.0386 19.9755 9.90601 19.9258 9.78214C19.876 9.65827 19.8027 9.54561 19.7101 9.45061L10.7127 0.300725ZM4.00463 18.3057V8.55596L10.0029 2.45603L16.0011 8.55596V18.3057H4.00463Z" fill="#F8F3EF"/>
</svg>
