<svg width="20" height="21" viewBox="0 0 20 21" fill="none" xmlns="http://www.w3.org/2000/svg">
<path d="M2.62602 7.69148C3.02564 6.74149 3.60645 5.87842 4.33602 5.15048C5.06398 4.42046 5.92747 3.8396 6.87802 3.44048C8.83751 2.62641 11.0378 2.61169 13.008 3.39948C13.0278 4.04695 13.2991 4.66123 13.7644 5.11194C14.2296 5.56265 14.8522 5.8143 15.5 5.81348C16.886 5.81348 18 4.69948 18 3.31348C18 1.92748 16.886 0.813477 15.5 0.813477C14.811 0.813477 14.188 1.08948 13.737 1.53848C11.306 0.565476 8.51402 0.580477 6.10202 1.59748C4.91202 2.09748 3.84202 2.81748 2.92202 3.73648C1.9931 4.66568 1.25679 5.76917 0.755361 6.98362C0.25393 8.19807 -0.002759 9.49958 2.23631e-05 10.8135H2.00002C2.00002 9.72748 2.21102 8.67748 2.62602 7.69148ZM17.373 13.9355C16.972 14.8875 16.396 15.7435 15.663 16.4765C14.93 17.2095 14.074 17.7855 13.121 18.1865C11.1615 19.0005 8.96123 19.0153 6.99102 18.2275C6.97176 17.58 6.70074 16.9656 6.23557 16.5148C5.77041 16.064 5.14778 15.8124 4.50002 15.8135C3.11402 15.8135 2.00002 16.9275 2.00002 18.3135C2.00002 19.6995 3.11402 20.8135 4.50002 20.8135C5.18902 20.8135 5.81202 20.5375 6.26302 20.0885C7.45058 20.5678 8.71936 20.814 10 20.8135C11.9666 20.8173 13.8904 20.2402 15.5302 19.1546C17.1699 18.069 18.4525 16.5233 19.217 14.7115C19.7365 13.4777 20.0028 12.1521 20 10.8135H18C18.0025 11.8857 17.7893 12.9474 17.373 13.9355Z" fill="#F8F3EF"/>
<path d="M9.99991 6.27539C7.49791 6.27539 5.46191 8.31139 5.46191 10.8134C5.46191 13.3154 7.49791 15.3514 9.99991 15.3514C12.5019 15.3514 14.5379 13.3154 14.5379 10.8134C14.5379 8.31139 12.5019 6.27539 9.99991 6.27539Z" fill="#F8F3EF"/>
</svg>
