<svg width="44" height="47" viewBox="0 0 44 47" fill="none" xmlns="http://www.w3.org/2000/svg">
<path d="M22 0C19.5827 0 17.2196 0.725395 15.2097 2.08445C13.1998 3.44351 11.6332 5.3752 10.7081 7.63523C9.78307 9.89526 9.54103 12.3821 10.0126 14.7814C10.4842 17.1806 11.6483 19.3845 13.3576 21.1142C15.0669 22.844 17.2447 24.0219 19.6156 24.4992C21.9864 24.9764 24.4439 24.7315 26.6772 23.7954C28.9106 22.8592 30.8194 21.2739 32.1624 19.2399C33.5054 17.206 34.2222 14.8147 34.2222 12.3684C34.2222 9.08811 32.9345 5.94216 30.6424 3.62263C28.3503 1.3031 25.2415 0 22 0ZM22 19.7895C20.5496 19.7895 19.1318 19.3542 17.9258 18.5388C16.7199 17.7234 15.7799 16.5644 15.2249 15.2083C14.6698 13.8523 14.5246 12.3602 14.8076 10.9206C15.0905 9.4811 15.789 8.1588 16.8145 7.12094C17.8401 6.08309 19.1468 5.37631 20.5693 5.08996C21.9919 4.80362 23.4664 4.95058 24.8063 5.51226C26.1463 6.07394 27.2916 7.02512 28.0974 8.2455C28.9032 9.46589 29.3333 10.9007 29.3333 12.3684C29.3333 14.3366 28.5607 16.2242 27.1855 17.6159C25.8102 19.0076 23.9449 19.7895 22 19.7895ZM44 47V44.5263C44 39.9339 42.1972 35.5295 38.9883 32.2822C35.7793 29.0349 31.427 27.2105 26.8889 27.2105H17.1111C12.573 27.2105 8.22068 29.0349 5.01173 32.2822C1.80277 35.5295 0 39.9339 0 44.5263V47H4.88889V44.5263C4.88889 41.246 6.17658 38.1 8.4687 35.7805C10.7608 33.461 13.8696 32.1579 17.1111 32.1579H26.8889C30.1304 32.1579 33.2392 33.461 35.5313 35.7805C37.8234 38.1 39.1111 41.246 39.1111 44.5263V47H44Z" fill="#EBF0F9"/>
</svg>
