<svg width="16" height="21" viewBox="0 0 16 21" fill="none" xmlns="http://www.w3.org/2000/svg">
<path d="M16 6.81348L10 0.813477H2C1.46957 0.813477 0.960859 1.02419 0.585786 1.39926C0.210714 1.77434 0 2.28304 0 2.81348V18.8135C0 19.3439 0.210714 19.8526 0.585786 20.2277C0.960859 20.6028 1.46957 20.8135 2 20.8135H14C14.5304 20.8135 15.0391 20.6028 15.4142 20.2277C15.7893 19.8526 16 19.3439 16 18.8135V6.81348ZM5 17.8135H3V8.81348H5V17.8135ZM9 17.8135H7V11.8135H9V17.8135ZM13 17.8135H11V14.8135H13V17.8135ZM10 7.81348H9V2.81348L14 7.81348H10Z" fill="#F8F3EF"/>
</svg>
