<svg width="19" height="20" viewBox="0 0 19 20" fill="none" xmlns="http://www.w3.org/2000/svg">
<path d="M8 16.8135C9.77498 16.8131 11.4988 16.2189 12.897 15.1255L17.293 19.5215L18.707 18.1075L14.311 13.7115C15.405 12.3131 15.9996 10.5889 16 8.81348C16 4.40248 12.411 0.813477 8 0.813477C3.589 0.813477 0 4.40248 0 8.81348C0 13.2245 3.589 16.8135 8 16.8135ZM8 2.81348C11.309 2.81348 14 5.50448 14 8.81348C14 12.1225 11.309 14.8135 8 14.8135C4.691 14.8135 2 12.1225 2 8.81348C2 5.50448 4.691 2.81348 8 2.81348Z" fill="#F8F3EF"/>
</svg>
