<svg width="28" height="28" viewBox="0 0 28 28" fill="none" xmlns="http://www.w3.org/2000/svg">
<path d="M12.5236 0C13.0268 0.0720382 13.5341 0.124638 14.0327 0.218973C16.4574 0.679789 18.5321 1.80496 20.2597 3.5596C21.8312 5.15531 22.8697 7.05174 23.3157 9.25062C23.8767 12.0149 23.4873 14.6506 22.104 17.1114C21.6602 17.8998 21.0992 18.6219 20.5914 19.3743L20.4473 19.4315C20.5376 19.4778 20.6463 19.5052 20.7155 19.5727C23.0102 21.8245 25.3018 24.08 27.5904 26.3391C27.7534 26.5009 27.8655 26.7147 28.001 26.904V27.2865C27.7151 27.8948 27.2816 28.1338 26.7806 27.932C26.6154 27.857 26.466 27.7512 26.3403 27.6204C24.0311 25.3548 21.7246 23.0869 19.4208 20.8168C19.3505 20.7476 19.2773 20.6807 19.2029 20.6109C18.8318 20.8648 18.4795 21.1221 18.1118 21.3542C16.0485 22.6543 13.7874 23.2626 11.3587 23.1717C8.15629 23.0517 5.42508 21.8207 3.19768 19.5126C1.52099 17.7734 0.482491 15.7049 0.1348 13.3214C-0.315826 10.2254 0.357826 7.38049 2.2158 4.85C4.00286 2.41328 6.39553 0.885041 9.35147 0.253849C9.81297 0.155511 10.287 0.117205 10.7554 0.0491689C10.8349 0.0371626 10.9127 0.0165802 10.991 0L12.5236 0ZM1.80692 11.5318C1.82808 11.9372 1.82694 12.2751 1.86411 12.6101C2.1163 14.7255 2.9209 16.5997 4.39059 18.1513C6.96396 20.8659 10.1384 21.887 13.7794 21.1815C16.9709 20.5606 19.3562 18.7231 20.7704 15.7724C22.1955 12.7959 22.1091 9.78748 20.5136 6.91052C18.8787 3.96267 16.2984 2.28235 12.9519 1.87014C10.3099 1.54539 7.87951 2.18745 5.7499 3.80087C3.1771 5.75048 1.89499 8.3793 1.80692 11.5318Z" fill="#18D1CB"/>
</svg>
