<svg width="20" height="20" viewBox="0 0 20 20" fill="none" xmlns="http://www.w3.org/2000/svg">
<path d="M14.895 4.226L17.708 1.414L16.294 0L13.448 2.846C13.2171 2.67916 12.9756 2.52751 12.725 2.392C11.8867 1.94364 10.9507 1.70906 10 1.70906C9.04932 1.70906 8.11332 1.94364 7.275 2.392C7.025 2.524 6.787 2.679 6.553 2.845L3.707 0L2.293 1.414L5.106 4.226C4.52036 4.97164 4.06402 5.81029 3.756 6.707H0V8.707H2.307C2.242 9.202 2.2 9.704 2.2 10.207C2.2 10.714 2.242 11.22 2.307 11.718H0V13.718H2.753C2.766 13.757 2.774 13.798 2.787 13.836C2.975 14.391 3.208 14.929 3.482 15.436C3.526 15.517 3.577 15.591 3.623 15.67L1.293 18L2.707 19.414L4.817 17.303C5.40541 17.9605 6.10554 18.5086 6.885 18.922C7.364 19.175 7.867 19.371 8.381 19.502C9.44273 19.7747 10.5561 19.775 11.618 19.503C12.1378 19.3693 12.6399 19.1746 13.114 18.923C13.579 18.677 14.028 18.373 14.447 18.019C14.705 17.801 14.947 17.557 15.181 17.303L17.292 19.414L18.706 18L16.376 15.67C16.423 15.59 16.474 15.515 16.518 15.434C16.791 14.929 17.025 14.391 17.212 13.835C17.225 13.796 17.233 13.756 17.246 13.717H20V11.717H17.692C17.757 11.218 17.799 10.713 17.799 10.206C17.799 9.703 17.757 9.201 17.693 8.706H20V6.707H16.244C15.9359 5.81052 15.48 4.97193 14.895 4.226ZM6.681 5.455C7.126 4.897 7.641 4.462 8.209 4.161C8.75919 3.86438 9.37445 3.70909 9.9995 3.70909C10.6246 3.70909 11.2398 3.86438 11.79 4.161C12.3839 4.48248 12.9048 4.9234 13.32 5.456C13.619 5.829 13.86 6.256 14.073 6.707H5.927C6.141 6.256 6.381 5.828 6.681 5.455ZM15.8 10.207C15.8 10.729 15.758 11.251 15.674 11.76C15.595 12.25 15.475 12.733 15.319 13.196C15.1695 13.6404 14.9825 14.0713 14.76 14.484C14.5486 14.8747 14.3033 15.2462 14.027 15.594C13.76 15.927 13.467 16.23 13.158 16.492C12.848 16.753 12.519 16.976 12.179 17.156C11.839 17.336 11.484 17.473 11.122 17.566C11.082 17.576 11.04 17.58 11 17.589V11.707H9V17.588C8.96 17.579 8.918 17.575 8.878 17.565C8.517 17.472 8.161 17.335 7.821 17.155C7.481 16.975 7.152 16.752 6.843 16.491C6.52426 16.2202 6.23256 15.9191 5.972 15.592C5.69564 15.2453 5.45099 14.8745 5.241 14.484C5.01839 14.0709 4.83105 13.6397 4.681 13.195C4.52334 12.7262 4.40428 12.2452 4.325 11.757C4.16065 10.7471 4.15862 9.7175 4.319 8.707H15.68C15.759 9.198 15.8 9.702 15.8 10.207Z" fill="#EBF0F9"/>
</svg>
