<svg width="19" height="21" viewBox="0 0 19 21" fill="none" xmlns="http://www.w3.org/2000/svg">
<path d="M16 1.81348C14.346 1.81348 13 3.15948 13 4.81348C13 5.31548 13.136 5.78148 13.354 6.19848L12.238 7.50048C11.5779 7.05207 10.798 6.81269 10 6.81348C9.261 6.81348 8.575 7.02948 7.98 7.37948L6.566 5.96548C6.84689 5.45991 6.99613 4.89182 7 4.31348C7 2.38348 5.43 0.813477 3.5 0.813477C1.57 0.813477 0 2.38348 0 4.31348C0 6.24348 1.57 7.81348 3.5 7.81348C4.101 7.81348 4.658 7.64748 5.152 7.37948L6.566 8.79348C6.19972 9.40392 6.00424 10.1016 6 10.8135C6 11.8105 6.38 12.7125 6.985 13.4145L5.293 15.1065L5.318 15.1315C4.90916 14.925 4.45801 14.8161 4 14.8135C2.346 14.8135 1 16.1595 1 17.8135C1 19.4675 2.346 20.8135 4 20.8135C5.654 20.8135 7 19.4675 7 17.8135C7 17.3375 6.879 16.8945 6.682 16.4955L6.707 16.5205L8.661 14.5665C9.082 14.7165 9.528 14.8135 10 14.8135C12.206 14.8135 14 13.0195 14 10.8135C13.9957 10.1923 13.8453 9.58081 13.561 9.02848L14.814 7.56648C15.178 7.72448 15.578 7.81348 16 7.81348C17.654 7.81348 19 6.46748 19 4.81348C19 3.15948 17.654 1.81348 16 1.81348ZM4 18.8135C3.73478 18.8135 3.48043 18.7081 3.29289 18.5206C3.10536 18.333 3 18.0787 3 17.8135C3 17.5483 3.10536 17.2939 3.29289 17.1064C3.48043 16.9188 3.73478 16.8135 4 16.8135C4.26522 16.8135 4.51957 16.9188 4.70711 17.1064C4.89464 17.2939 5 17.5483 5 17.8135C5 18.0787 4.89464 18.333 4.70711 18.5206C4.51957 18.7081 4.26522 18.8135 4 18.8135ZM2 4.31348C2 3.48648 2.673 2.81348 3.5 2.81348C4.327 2.81348 5 3.48648 5 4.31348C5 5.14048 4.327 5.81348 3.5 5.81348C2.673 5.81348 2 5.14048 2 4.31348ZM10 12.8135C8.897 12.8135 8 11.9165 8 10.8135C8 9.71048 8.897 8.81348 10 8.81348C11.103 8.81348 12 9.71048 12 10.8135C12 11.9165 11.103 12.8135 10 12.8135ZM16 5.81348C15.7348 5.81348 15.4804 5.70812 15.2929 5.52058C15.1054 5.33305 15 5.07869 15 4.81348C15 4.54826 15.1054 4.29391 15.2929 4.10637C15.4804 3.91883 15.7348 3.81348 16 3.81348C16.2652 3.81348 16.5196 3.91883 16.7071 4.10637C16.8946 4.29391 17 4.54826 17 4.81348C17 5.07869 16.8946 5.33305 16.7071 5.52058C16.5196 5.70812 16.2652 5.81348 16 5.81348Z" fill="#F8F3EF"/>
</svg>
